<svg width="218" height="80" viewBox="0 0 218 80" fill="none" xmlns="http://www.w3.org/2000/svg">
<g clip-path="url(#clip0_229_127)">
<rect width="80" height="80" rx="13" fill="url(#paint0_radial_229_127)"/>
<g opacity="0.53" filter="url(#filter0_f_229_127)">
<rect width="85.8378" height="3" transform="translate(7 75.8032) rotate(-25.3884)" fill="#B2B7E4"/>
</g>
<path fill-rule="evenodd" clip-rule="evenodd" d="M0 19.2769C0 19.705 0.577403 19.8408 0.768293 19.4576V19.4576C1.66463 17.9153 3.32927 14.8305 4.9939 14.8305C6.53049 14.8305 8.19512 17.9153 9.85976 19.4576C11.5244 21 13.189 21 14.8537 19.4576C16.5183 17.9153 18.0549 14.8305 19.7195 11.7458C21.3841 8.54237 23.0488 5.45763 24.7134 5.45763C26.378 5.45763 28.0427 8.54237 29.7073 11.2712C31.2439 14 32.9085 16.3729 34.5732 14.8305C36.2378 13.2881 37.9024 7.83051 39.5671 7C41.2317 6.28814 42.7683 10.0847 44.4329 12.8136C46.0976 15.5424 50.8354 15.8983 52.5 14.8305C54.1646 13.6441 52.7561 10.9153 54.2927 8.18644C55.9573 5.45763 57.6219 3.91525 59.2866 3.55932C60.9512 3.08475 62.6159 3.91525 64.2805 7C65.9451 10.0847 67.4817 15.5424 69.1463 17.9153C70.811 20.2881 75.3354 19.8136 77 17.9153C78.6646 15.8983 77.4695 12.4576 79.0061 10.0847C80.6707 7.83051 82.3354 6.28814 83.2317 5.45763V5.45763C83.7256 4.9237 84 4.2231 84 3.49574V0.768295C84 0.343977 83.656 0 83.2317 0V0C82.3354 0 80.6707 0 79.0061 0C77.4695 0 75.8049 0 74.1402 0C72.4756 0 70.811 0 69.1463 0C67.4817 0 65.9451 0 64.2805 0C62.6159 0 60.9512 0 59.2866 0C57.6219 0 55.9573 0 54.2927 0C52.7561 0 51.0915 0 49.4268 0C47.7622 0 46.0976 0 44.4329 0C42.7683 0 41.2317 0 39.5671 0C37.9024 0 36.2378 0 34.5732 0C32.9085 0 31.2439 0 29.7073 0C28.0427 0 26.378 0 24.7134 0C23.0488 0 21.3841 0 19.7195 0C18.0549 0 16.5183 0 14.8537 0C13.189 0 11.5244 0 9.85976 0C8.19512 0 6.53049 0 4.9939 0C3.32927 0 1.66463 0 0.768293 0V0C0.343976 0 0 0.343976 0 0.768293V19.2769Z" fill="#FF4D00"/>
<g filter="url(#filter1_d_229_127)">
<path d="M21.6777 26.5625V30H12.9375V26.5625H14.8223V17.9004H12.9375V14.4629H25.7598V20.7422H22.9375L22.3223 17.9004H19.8223V20.8398H22V23.3398H19.8223V26.5625H21.6777ZM31.8535 30.1758C30.6686 30.1758 29.6367 29.9577 28.7578 29.5215C27.8659 29.0918 27.1725 28.4603 26.6777 27.627C26.1829 26.7936 25.9355 25.804 25.9355 24.6582C25.9355 23.5189 26.1829 22.5521 26.6777 21.7578C27.1725 20.957 27.8659 20.3548 28.7578 19.9512C29.6497 19.541 30.6816 19.3359 31.8535 19.3359C33.0579 19.3359 34.1029 19.5443 34.9883 19.9609C35.8802 20.3776 36.5703 20.9831 37.0586 21.7773C37.5469 22.5651 37.791 23.5254 37.791 24.6582C37.791 25.804 37.5469 26.7936 37.0586 27.627C36.5638 28.4603 35.8672 29.0951 34.9688 29.5312C34.0768 29.9609 33.0384 30.1758 31.8535 30.1758ZM31.8535 27.3242C32.2832 27.3242 32.6022 27.1126 32.8105 26.6895C33.0124 26.2793 33.1133 25.6022 33.1133 24.6582C33.1133 23.7923 33.0124 23.1673 32.8105 22.7832C32.6152 22.3926 32.2962 22.1973 31.8535 22.1973C31.4303 22.1973 31.1178 22.3926 30.916 22.7832C30.7142 23.1673 30.6133 23.7923 30.6133 24.6582C30.6133 25.5827 30.7174 26.2598 30.9258 26.6895C31.1341 27.1126 31.4434 27.3242 31.8535 27.3242ZM45.1934 30.1758C44.0085 30.1758 42.9766 29.9577 42.0977 29.5215C41.2057 29.0918 40.5124 28.4603 40.0176 27.627C39.5228 26.7936 39.2754 25.804 39.2754 24.6582C39.2754 23.5189 39.5228 22.5521 40.0176 21.7578C40.5124 20.957 41.2057 20.3548 42.0977 19.9512C42.9896 19.541 44.0215 19.3359 45.1934 19.3359C46.3978 19.3359 47.4427 19.5443 48.3281 19.9609C49.2201 20.3776 49.9102 20.9831 50.3984 21.7773C50.8867 22.5651 51.1309 23.5254 51.1309 24.6582C51.1309 25.804 50.8867 26.7936 50.3984 27.627C49.9036 28.4603 49.207 29.0951 48.3086 29.5312C47.4167 29.9609 46.3783 30.1758 45.1934 30.1758ZM45.1934 27.3242C45.623 27.3242 45.9421 27.1126 46.1504 26.6895C46.3522 26.2793 46.4531 25.6022 46.4531 24.6582C46.4531 23.7923 46.3522 23.1673 46.1504 22.7832C45.9551 22.3926 45.6361 22.1973 45.1934 22.1973C44.7702 22.1973 44.4577 22.3926 44.2559 22.7832C44.054 23.1673 43.9531 23.7923 43.9531 24.6582C43.9531 25.5827 44.0573 26.2598 44.2656 26.6895C44.474 27.1126 44.7832 27.3242 45.1934 27.3242ZM57.1172 30.1758C56.1732 30.1758 55.3561 29.9251 54.666 29.4238C53.9824 28.9225 53.4616 28.252 53.1035 27.4121C52.752 26.5658 52.5762 25.6348 52.5762 24.6191C52.5762 23.7012 52.7585 22.832 53.123 22.0117C53.4876 21.2044 54.002 20.5566 54.666 20.0684C55.3366 19.5801 56.1276 19.3359 57.0391 19.3359C57.7031 19.3359 58.2728 19.4434 58.748 19.6582C59.2233 19.873 59.666 20.1921 60.0762 20.6152V18.0566H58.5137V15.4004L64.7734 14.7559V27.0605H66.0137V30H59.998V28.7402C59.679 29.1699 59.2721 29.515 58.7773 29.7754C58.2826 30.0293 57.7292 30.1628 57.1172 30.1758ZM58.6797 27.3242C58.9857 27.3242 59.2624 27.2526 59.5098 27.1094C59.7572 26.9596 59.946 26.7839 60.0762 26.582V22.8809C59.9264 22.7051 59.7246 22.5488 59.4707 22.4121C59.2233 22.2689 58.9596 22.1973 58.6797 22.1973C58.1719 22.1973 57.7585 22.4056 57.4395 22.8223C57.1204 23.2324 56.9609 23.8314 56.9609 24.6191C56.9609 25.4199 57.1074 26.071 57.4004 26.5723C57.6934 27.0736 58.1198 27.3242 58.6797 27.3242ZM20.4961 62.2832C19.0508 62.2832 17.7357 61.9772 16.5508 61.3652C15.3529 60.7598 14.3958 59.8483 13.6797 58.6309C12.9701 57.4134 12.6152 55.916 12.6152 54.1387C12.6152 52.6543 12.8854 51.3034 13.4258 50.0859C13.9661 48.8815 14.7572 47.9277 15.7988 47.2246C16.847 46.515 18.1133 46.1602 19.5977 46.1602C20.3529 46.1602 21.0299 46.3392 21.6289 46.6973C22.2344 47.0488 22.6706 47.4948 22.9375 48.0352L23.3379 46.4629H26.375V52.8398H23.2598V52.5176C23.2598 51.6908 23.0677 51.0137 22.6836 50.4863C22.306 49.959 21.7428 49.6953 20.9941 49.6953C20.4928 49.6953 20.0306 49.8874 19.6074 50.2715C19.1908 50.6621 18.862 51.1732 18.6211 51.8047C18.3802 52.4297 18.2598 53.0742 18.2598 53.7383C18.2598 55.0469 18.5853 56.0723 19.2363 56.8145C19.8874 57.5501 20.7793 57.918 21.9121 57.918C22.7129 57.918 23.4551 57.7845 24.1387 57.5176C24.8288 57.2507 25.3952 56.9642 25.8379 56.6582L26.0527 56.8438V61.0039C25.2259 61.4792 24.3535 61.8112 23.4355 62C22.5176 62.1888 21.5378 62.2832 20.4961 62.2832ZM35.8965 59.0605V62H27.9961V59.0605H29.7148V50.0566H27.9961V47.4004L34.3926 46.7559V59.0605H35.8965ZM41.668 62.1758C39.5716 62.1758 38.5234 60.8639 38.5234 58.2402V54.5586H37.2637V51.9219L43.2012 51.3359V58.2402C43.2012 58.4941 43.2956 58.7285 43.4844 58.9434C43.6732 59.1517 43.8945 59.2559 44.1484 59.2559C44.4414 59.2559 44.6693 59.1582 44.832 58.9629C45.0013 58.7611 45.0859 58.5137 45.0859 58.2207V54.5586H44.1484V51.9219L49.7637 51.3359V59.0605H51.0234V62H45.0859V60.4766C44.7409 61.0104 44.2786 61.4271 43.6992 61.7266C43.1263 62.026 42.4492 62.1758 41.668 62.1758ZM61.043 62.1758C60.444 62.1758 59.9004 62.0521 59.4121 61.8047C58.9303 61.5508 58.5202 61.2415 58.1816 60.877L57.8105 62H53.4258V50.0566H52.166V47.4004L58.1035 46.7559V52.5762C58.6113 52.166 59.1387 51.8568 59.6855 51.6484C60.2324 51.4401 60.7533 51.3359 61.248 51.3359C62.1725 51.3359 62.9701 51.5768 63.6406 52.0586C64.2982 52.5404 64.7897 53.1914 65.1152 54.0117C65.4408 54.832 65.6035 55.7402 65.6035 56.7363C65.6035 57.7845 65.4342 58.7155 65.0957 59.5293C64.7572 60.3496 64.2428 60.9974 63.5527 61.4727C62.8691 61.9414 62.0326 62.1758 61.043 62.1758ZM59.627 59.3242C60.0957 59.3242 60.4831 59.0931 60.7891 58.6309C61.0951 58.1686 61.248 57.6315 61.248 57.0195C61.248 56.2578 61.1146 55.597 60.8477 55.0371C60.5807 54.4772 60.1738 54.1973 59.627 54.1973C59.321 54.1973 59.0215 54.2656 58.7285 54.4023C58.4355 54.5326 58.2272 54.679 58.1035 54.8418V58.8359C58.2533 58.9596 58.4746 59.0736 58.7676 59.1777C59.0605 59.2754 59.347 59.3242 59.627 59.3242Z" fill="#4A1600"/>
</g>
<g opacity="0.53" filter="url(#filter2_f_229_127)">
<rect width="89" height="3" transform="translate(-3 38)" fill="#FF4C00"/>
</g>
</g>
<path d="M99.033 47H92.015V44.709H93.639V28.991H92.015V26.7H106.138V31.166H103.847V28.991H96.046V35.632H105.007V37.923H96.046V44.709H99.033V47ZM118.105 45.579C117.583 46.101 116.964 46.5167 116.249 46.826C115.533 47.116 114.77 47.261 113.958 47.261C113.146 47.261 112.382 47.116 111.667 46.826C110.971 46.5167 110.362 46.101 109.84 45.579C109.318 45.057 108.902 44.4577 108.593 43.781C108.303 43.1043 108.158 42.36 108.158 41.548C108.158 40.7747 108.303 40.04 108.593 39.344C108.902 38.648 109.318 38.039 109.84 37.517C110.362 37.0143 110.971 36.618 111.667 36.328C112.382 36.0187 113.146 35.864 113.958 35.864C114.77 35.864 115.533 36.0187 116.249 36.328C116.964 36.618 117.583 37.0143 118.105 37.517C118.627 38.039 119.033 38.648 119.323 39.344C119.632 40.04 119.787 40.7747 119.787 41.548C119.787 42.3407 119.632 43.085 119.323 43.781C119.033 44.4577 118.627 45.057 118.105 45.579ZM111.551 43.926C111.841 44.2353 112.189 44.477 112.595 44.651C113.001 44.825 113.436 44.912 113.9 44.912C114.364 44.912 114.799 44.825 115.205 44.651C115.611 44.477 115.968 44.2353 116.278 43.926C116.587 43.636 116.829 43.288 117.003 42.882C117.177 42.476 117.264 42.041 117.264 41.577C117.264 41.113 117.177 40.678 117.003 40.272C116.829 39.866 116.587 39.5083 116.278 39.199C115.968 38.8897 115.611 38.648 115.205 38.474C114.799 38.3 114.364 38.213 113.9 38.213C113.436 38.213 113.001 38.3 112.595 38.474C112.189 38.648 111.841 38.8897 111.551 39.199C111.241 39.5083 111 39.866 110.826 40.272C110.652 40.678 110.565 41.113 110.565 41.577C110.565 42.041 110.652 42.476 110.826 42.882C111 43.288 111.241 43.636 111.551 43.926ZM131.755 45.579C131.233 46.101 130.614 46.5167 129.899 46.826C129.184 47.116 128.42 47.261 127.608 47.261C126.796 47.261 126.032 47.116 125.317 46.826C124.621 46.5167 124.012 46.101 123.49 45.579C122.968 45.057 122.552 44.4577 122.243 43.781C121.953 43.1043 121.808 42.36 121.808 41.548C121.808 40.7747 121.953 40.04 122.243 39.344C122.552 38.648 122.968 38.039 123.49 37.517C124.012 37.0143 124.621 36.618 125.317 36.328C126.032 36.0187 126.796 35.864 127.608 35.864C128.42 35.864 129.184 36.0187 129.899 36.328C130.614 36.618 131.233 37.0143 131.755 37.517C132.277 38.039 132.683 38.648 132.973 39.344C133.282 40.04 133.437 40.7747 133.437 41.548C133.437 42.3407 133.282 43.085 132.973 43.781C132.683 44.4577 132.277 45.057 131.755 45.579ZM125.201 43.926C125.491 44.2353 125.839 44.477 126.245 44.651C126.651 44.825 127.086 44.912 127.55 44.912C128.014 44.912 128.449 44.825 128.855 44.651C129.261 44.477 129.619 44.2353 129.928 43.926C130.237 43.636 130.479 43.288 130.653 42.882C130.827 42.476 130.914 42.041 130.914 41.577C130.914 41.113 130.827 40.678 130.653 40.272C130.479 39.866 130.237 39.5083 129.928 39.199C129.619 38.8897 129.261 38.648 128.855 38.474C128.449 38.3 128.014 38.213 127.55 38.213C127.086 38.213 126.651 38.3 126.245 38.474C125.839 38.648 125.491 38.8897 125.201 39.199C124.892 39.5083 124.65 39.866 124.476 40.272C124.302 40.678 124.215 41.113 124.215 41.577C124.215 42.041 124.302 42.476 124.476 42.882C124.65 43.288 124.892 43.636 125.201 43.926ZM149.291 47H144.97V46.42C144.97 46.2847 144.97 46.188 144.97 46.13C144.97 46.072 144.97 45.9753 144.97 45.84C144.951 45.898 144.854 46.0043 144.68 46.159C144.506 46.3137 144.265 46.4683 143.955 46.623C143.627 46.797 143.24 46.942 142.795 47.058C142.351 47.1933 141.848 47.261 141.287 47.261C140.475 47.261 139.712 47.116 138.996 46.826C138.281 46.5167 137.662 46.101 137.14 45.579C136.618 45.057 136.203 44.448 135.893 43.752C135.603 43.056 135.458 42.3213 135.458 41.548C135.458 40.7747 135.603 40.0497 135.893 39.373C136.203 38.677 136.618 38.068 137.14 37.546C137.662 37.024 138.281 36.618 138.996 36.328C139.712 36.0187 140.475 35.864 141.287 35.864C141.771 35.864 142.225 35.9317 142.65 36.067C143.095 36.2023 143.482 36.357 143.81 36.531C144.139 36.705 144.371 36.85 144.506 36.966C144.642 37.0627 144.729 37.14 144.767 37.198C144.729 37.0433 144.7 36.85 144.68 36.618C144.68 36.3667 144.68 36.1733 144.68 36.038V27.541H142.766V25.25H147.087V44.709H149.291V47ZM141.287 38.213C140.785 38.213 140.321 38.3 139.895 38.474C139.47 38.648 139.103 38.88 138.793 39.17C138.523 39.4793 138.3 39.837 138.126 40.243C137.972 40.6297 137.894 41.0647 137.894 41.548C137.894 42.0507 137.991 42.5243 138.184 42.969C138.378 43.4137 138.639 43.781 138.967 44.071C139.257 44.3417 139.596 44.5543 139.982 44.709C140.388 44.8443 140.823 44.912 141.287 44.912C141.751 44.912 142.177 44.8443 142.563 44.709C142.95 44.5543 143.298 44.3417 143.607 44.071C143.936 43.781 144.197 43.4137 144.39 42.969C144.584 42.5243 144.68 42.0507 144.68 41.548C144.68 41.0067 144.574 40.5137 144.361 40.069C144.168 39.6243 143.897 39.257 143.549 38.967C143.259 38.735 142.921 38.5513 142.534 38.416C142.148 38.2807 141.732 38.213 141.287 38.213ZM175.643 45.782C174.87 46.2267 174.038 46.5843 173.149 46.855C172.279 47.1063 171.351 47.232 170.365 47.232C168.934 47.232 167.591 46.9613 166.334 46.42C165.077 45.8787 163.985 45.1343 163.057 44.187C162.11 43.259 161.365 42.1667 160.824 40.91C160.283 39.6533 160.012 38.3097 160.012 36.879C160.012 35.4483 160.283 34.1047 160.824 32.848C161.365 31.572 162.11 30.4603 163.057 29.513C163.985 28.585 165.077 27.8503 166.334 27.309C167.591 26.7483 168.934 26.468 170.365 26.468C171.351 26.468 172.279 26.5937 173.149 26.845C174.038 27.0963 174.879 27.454 175.672 27.918V31.166H173.381V29.397C172.898 29.1843 172.405 29.0297 171.902 28.933C171.399 28.817 170.887 28.759 170.365 28.759C169.263 28.759 168.229 28.9717 167.262 29.397C166.315 29.8223 165.483 30.4023 164.768 31.137C164.033 31.891 163.453 32.761 163.028 33.747C162.622 34.733 162.419 35.777 162.419 36.879C162.419 37.981 162.622 39.025 163.028 40.011C163.453 40.997 164.033 41.8477 164.768 42.563C165.483 43.2977 166.315 43.8777 167.262 44.303C168.229 44.7283 169.263 44.941 170.365 44.941C171.08 44.941 171.767 44.854 172.424 44.68C173.101 44.4867 173.739 44.216 174.338 43.868L175.643 45.782ZM184.15 47H177.712V44.709H179.916V27.541H178.002V25.25H182.323V44.709H184.15V47ZM196.562 44.216C196.175 45.144 195.547 45.8883 194.677 46.449C193.826 46.9903 192.879 47.261 191.835 47.261C190.694 47.261 189.795 46.9613 189.138 46.362C188.481 45.7627 188.133 44.9797 188.094 44.013V38.416H186.18V36.125H190.501V42.911C190.54 43.433 190.723 43.8873 191.052 44.274C191.4 44.6413 191.941 44.8443 192.676 44.883C193.179 44.883 193.652 44.796 194.097 44.622C194.561 44.448 194.967 44.2063 195.315 43.897C195.663 43.5877 195.943 43.2203 196.156 42.795C196.369 42.3697 196.475 41.9057 196.475 41.403V38.416H194.561V36.125H198.882V44.97H200.68V47H196.475V45.521L196.562 44.216ZM202.719 47V44.709H204.923V27.541H203.009V25.25H207.33V36.502C207.33 36.6373 207.32 36.763 207.301 36.879C207.301 36.9757 207.282 37.1013 207.243 37.256C207.262 37.198 207.34 37.111 207.475 36.995C207.61 36.8597 207.842 36.705 208.171 36.531C208.5 36.357 208.877 36.2023 209.302 36.067C209.747 35.9317 210.22 35.864 210.723 35.864C211.535 35.864 212.299 36.0187 213.014 36.328C213.729 36.618 214.348 37.024 214.87 37.546C215.392 38.068 215.798 38.677 216.088 39.373C216.397 40.0497 216.552 40.7747 216.552 41.548C216.552 42.3213 216.397 43.056 216.088 43.752C215.798 44.448 215.392 45.057 214.87 45.579C214.348 46.101 213.729 46.5167 213.014 46.826C212.299 47.116 211.535 47.261 210.723 47.261C210.162 47.261 209.66 47.1933 209.215 47.058C208.77 46.942 208.393 46.797 208.084 46.623C207.755 46.4683 207.504 46.3137 207.33 46.159C207.156 46.0043 207.059 45.898 207.04 45.84C207.04 45.9753 207.04 46.072 207.04 46.13C207.04 46.188 207.04 46.2847 207.04 46.42V47H202.719ZM210.723 38.213C210.182 38.213 209.689 38.3097 209.244 38.503C208.819 38.677 208.461 38.9283 208.171 39.257C207.9 39.547 207.688 39.895 207.533 40.301C207.398 40.6877 207.33 41.1033 207.33 41.548C207.33 42.0507 207.417 42.5243 207.591 42.969C207.784 43.3943 208.045 43.7617 208.374 44.071C208.683 44.3223 209.031 44.5253 209.418 44.68C209.824 44.8347 210.259 44.912 210.723 44.912C211.226 44.912 211.68 44.8347 212.086 44.68C212.492 44.506 212.85 44.274 213.159 43.984C213.449 43.6747 213.681 43.317 213.855 42.911C214.029 42.4857 214.116 42.0313 214.116 41.548C214.116 41.026 214.019 40.5523 213.826 40.127C213.633 39.6823 213.372 39.315 213.043 39.025C212.753 38.7737 212.405 38.5803 211.999 38.445C211.612 38.2903 211.187 38.213 210.723 38.213Z" fill="white"/>
<defs>
<filter id="filter0_f_229_127" x="3" y="35" width="86.834" height="47.5135" filterUnits="userSpaceOnUse" color-interpolation-filters="sRGB">
<feFlood flood-opacity="0" result="BackgroundImageFix"/>
<feBlend mode="normal" in="SourceGraphic" in2="BackgroundImageFix" result="shape"/>
<feGaussianBlur stdDeviation="2" result="effect1_foregroundBlur_229_127"/>
</filter>
<filter id="filter1_d_229_127" x="8.61523" y="14.4629" width="61.3984" height="55.8203" filterUnits="userSpaceOnUse" color-interpolation-filters="sRGB">
<feFlood flood-opacity="0" result="BackgroundImageFix"/>
<feColorMatrix in="SourceAlpha" type="matrix" values="0 0 0 0 0 0 0 0 0 0 0 0 0 0 0 0 0 0 127 0" result="hardAlpha"/>
<feOffset dy="4"/>
<feGaussianBlur stdDeviation="2"/>
<feComposite in2="hardAlpha" operator="out"/>
<feColorMatrix type="matrix" values="0 0 0 0 0 0 0 0 0 0 0 0 0 0 0 0 0 0 0.25 0"/>
<feBlend mode="normal" in2="BackgroundImageFix" result="effect1_dropShadow_229_127"/>
<feBlend mode="normal" in="SourceGraphic" in2="effect1_dropShadow_229_127" result="shape"/>
</filter>
<filter id="filter2_f_229_127" x="-7" y="34" width="97" height="11" filterUnits="userSpaceOnUse" color-interpolation-filters="sRGB">
<feFlood flood-opacity="0" result="BackgroundImageFix"/>
<feBlend mode="normal" in="SourceGraphic" in2="BackgroundImageFix" result="shape"/>
<feGaussianBlur stdDeviation="2" result="effect1_foregroundBlur_229_127"/>
</filter>
<radialGradient id="paint0_radial_229_127" cx="0" cy="0" r="1" gradientUnits="userSpaceOnUse" gradientTransform="translate(42 18) rotate(123.056) scale(75.1665)">
<stop offset="0.161737" stop-color="white"/>
<stop offset="1" stop-color="#FCC7C8"/>
</radialGradient>
<clipPath id="clip0_229_127">
<rect width="80" height="80" rx="13" fill="white"/>
</clipPath>
</defs>
</svg>
