<svg width="331" height="92" viewBox="0 0 331 92" fill="none" xmlns="http://www.w3.org/2000/svg">
<rect x="8" y="12" width="80" height="80" rx="13" fill="url(#paint0_radial_228_87)"/>
<g clip-path="url(#clip0_228_87)">
<g filter="url(#filter0_f_228_87)">
<path d="M47.3139 -4.12321C47.2174 -4.20421 46.999 -26.7511 46.999 -4.24568V87.4808L81.275 87.6109C81.3909 87.6173 81.5055 87.5721 81.605 87.4808C81.7189 87.365 81.8117 87.207 81.875 87.0215C81.9574 86.8091 82 86.566 81.9982 86.3189C81.9965 86.0719 81.9504 85.8303 81.865 85.6207L47.5889 -3.68689C47.5266 -3.86734 47.4332 -4.01824 47.3189 -4.12321H47.3139ZM42.0995 -7.56783C42.5944 -8.88778 43.308 -9.98443 44.1682 -10.747C45.0285 -11.5097 46.0049 -11.9112 46.999 -11.9112C47.993 -11.9112 48.9694 -11.5097 49.8297 -10.747C50.6899 -9.98443 51.4035 -8.88778 51.8984 -7.56783L86.1745 81.7398C88.4642 87.6951 85.7195 95.2656 81.275 95.2656H12.7229C8.27836 95.2656 5.53868 87.6875 7.82342 81.7398L42.0995 -7.56783Z" fill="url(#paint1_linear_228_87)"/>
</g>
</g>
<g opacity="0.73" clip-path="url(#clip1_228_87)">
<path d="M25.2298 44.4521L18.4146 25.7895L38.1404 18.586L44.8294 36.9029C45.2026 37.9247 45.2643 39.0342 45.0069 40.0911C44.7495 41.148 44.1844 42.1048 43.3832 42.8406C42.582 43.5763 41.5806 44.058 40.5056 44.2246C39.4307 44.3912 38.3304 44.2354 37.3441 43.7767C36.3577 43.318 35.5295 42.5772 34.9642 41.6478C34.3988 40.7184 34.1218 39.6423 34.1681 38.5555C34.2144 37.4687 34.5819 36.42 35.2242 35.5421C35.866 34.6648 36.7534 33.9974 37.7742 33.6241C38.3629 33.4157 38.9832 33.3105 39.6077 33.3132L40.3259 33.3163L40.0795 32.6417L37.2091 24.7814L37.0376 24.3117L36.5679 24.4832L23.4173 29.2856L22.9477 29.4571L23.1192 29.9268L29.9797 48.7133C30.3528 49.7351 30.4146 50.8446 30.1572 51.9015C29.8997 52.9584 29.3347 53.9152 28.5335 54.651C27.7323 55.3867 26.7308 55.8684 25.6559 56.035C24.5809 56.2016 23.4807 56.0458 22.4943 55.5871C21.508 55.1284 20.6797 54.3876 20.1144 53.4582C19.5491 52.5288 19.2721 51.4527 19.3184 50.3659C19.3647 49.2791 19.7322 48.2304 20.3745 47.3525C21.0163 46.4752 21.9037 45.8077 22.9246 45.4344C23.5132 45.226 24.1335 45.1209 24.758 45.1236L25.4762 45.1267L25.2298 44.4521Z" fill="url(#paint2_linear_228_87)" stroke="white"/>
</g>
<path d="M53.906 62.5726H61.906C62.2597 62.5726 62.5988 62.4322 62.8489 62.1821C63.0989 61.9321 63.2394 61.5929 63.2394 61.2393V57.2393C63.2394 56.8857 63.0989 56.5465 62.8489 56.2965C62.5988 56.0464 62.2597 55.906 61.906 55.906H57.906L56.5727 54.5726H53.906C53.5524 54.5726 53.2133 54.7131 52.9632 54.9632C52.7132 55.2132 52.5727 55.5523 52.5727 55.906V57.2393H45.906V54.5726H48.5727C48.9263 54.5726 49.2655 54.4322 49.5155 54.1821C49.7656 53.9321 49.906 53.5929 49.906 53.2393V49.2393C49.906 48.8857 49.7656 48.5465 49.5155 48.2965C49.2655 48.0464 48.9263 47.906 48.5727 47.906H44.5727L43.2394 46.5726H40.5727C40.2191 46.5726 39.88 46.7131 39.6299 46.9632C39.3799 47.2132 39.2394 47.5523 39.2394 47.906V53.2393C39.2394 53.5929 39.3799 53.9321 39.6299 54.1821C39.88 54.4322 40.2191 54.5726 40.5727 54.5726H43.2394V71.906H52.5727V73.2393C52.5727 73.5929 52.7132 73.9321 52.9632 74.1821C53.2133 74.4322 53.5524 74.5726 53.906 74.5726H61.906C62.2597 74.5726 62.5988 74.4322 62.8489 74.1821C63.0989 73.9321 63.2394 73.5929 63.2394 73.2393V69.2393C63.2394 68.8857 63.0989 68.5465 62.8489 68.2965C62.5988 68.0464 62.2597 67.906 61.906 67.906H57.906L56.5727 66.5726H53.906C53.5524 66.5726 53.2133 66.7131 52.9632 66.9632C52.7132 67.2132 52.5727 67.5523 52.5727 67.906V69.2393H45.906V59.906H52.5727V61.2393C52.5727 61.5929 52.7132 61.9321 52.9632 62.1821C53.2133 62.4322 53.5524 62.5726 53.906 62.5726Z" fill="url(#paint3_linear_228_87)"/>
<path d="M66.0587 28.4557C66.761 28.6244 67.4896 28.6532 68.203 28.5403C68.9164 28.4274 69.6006 28.1751 70.2165 27.7978C70.8324 27.4205 71.3679 26.9255 71.7925 26.3413C72.2171 25.757 72.5225 25.0948 72.6912 24.3925C73.0319 22.9742 72.7952 21.4786 72.0332 20.2347C71.2712 18.9909 70.0463 18.1007 68.628 17.76C67.2096 17.4193 65.714 17.656 64.4702 18.418C63.2264 19.18 62.3362 20.4049 61.9955 21.8232C61.8268 22.5255 61.798 23.2542 61.9109 23.9675C62.0238 24.6809 62.2761 25.3651 62.6534 25.981C63.4154 27.2248 64.6403 28.115 66.0587 28.4557ZM70.4966 9.98129C77.735 11.7201 82.2132 19.0042 80.4699 26.2611C79.8804 28.7151 78.3909 31.3017 76.4496 33.8189C74.5127 36.3304 72.1508 38.7413 69.8559 40.8432C67.5622 42.9438 65.3433 44.7285 63.6975 45.9882C62.8749 46.6178 62.1961 47.1157 61.7236 47.4559C61.6216 47.5293 61.5291 47.5954 61.447 47.6539C61.4003 47.5645 61.348 47.4636 61.2904 47.3518C61.024 46.8342 60.6454 46.0822 60.1985 45.1477C59.3045 43.2779 58.1384 40.6801 57.0492 37.7668C55.9593 34.8518 54.9502 31.6312 54.3655 28.5139C53.7794 25.3895 53.6273 22.4087 54.2168 19.9546C55.053 16.4732 57.2381 13.4667 60.2911 11.5963C63.3442 9.72594 67.0152 9.145 70.4966 9.98129Z" fill="url(#paint4_radial_228_87)" stroke="url(#paint5_linear_228_87)"/>
<g filter="url(#filter1_f_228_87)">
<rect x="58" y="48" width="5" height="5" rx="2.5" fill="#4355AA"/>
</g>
<path d="M107.033 59H100.015V56.709H102.538V40.991H100.015V38.7H103.263C104.926 40.846 106.569 42.992 108.193 45.138C109.836 47.2647 111.489 49.401 113.152 51.547C114.815 49.401 116.458 47.2647 118.082 45.138C119.725 42.992 121.378 40.846 123.041 38.7H126.289V40.991H123.766V56.709H126.289V59H119.271V56.709H121.359V45.37C121.378 45.2153 121.388 45.0607 121.388 44.906C121.407 44.7513 121.427 44.5967 121.446 44.442C121.291 44.6547 121.137 44.877 120.982 45.109C120.827 45.341 120.673 45.5633 120.518 45.776L113.152 55.375L105.467 45.312C105.332 45.138 105.216 44.993 105.119 44.877C105.042 44.761 104.955 44.616 104.858 44.442C104.877 44.5967 104.897 44.7513 104.916 44.906C104.935 45.0607 104.945 45.2153 104.945 45.37V56.709H107.033V59ZM134.745 59H128.307V56.709H130.337V50.416H128.307V48.125H132.744V56.709H134.745V59ZM133.063 43.92C133.063 44.3647 132.908 44.732 132.599 45.022C132.29 45.2927 131.951 45.428 131.584 45.428C131.197 45.428 130.849 45.2927 130.54 45.022C130.231 44.732 130.076 44.3647 130.076 43.92C130.076 43.4753 130.231 43.108 130.54 42.818C130.849 42.528 131.197 42.383 131.584 42.383C131.951 42.383 132.29 42.528 132.599 42.818C132.908 43.108 133.063 43.4753 133.063 43.92ZM143.213 59H136.775V56.709H138.979V50.416H137.065V48.125H141.096V48.386C141.134 48.85 141.163 49.2753 141.183 49.662C141.221 50.0293 141.26 50.445 141.299 50.909C141.685 49.981 142.304 49.2463 143.155 48.705C144.025 48.1443 144.982 47.864 146.026 47.864C147.166 47.864 148.065 48.1637 148.723 48.763C149.38 49.3623 149.728 50.1453 149.767 51.112V56.709H151.565V59H145.127V56.709H147.36V52.214C147.321 51.692 147.128 51.2473 146.78 50.88C146.451 50.4933 145.919 50.2807 145.185 50.242C144.682 50.242 144.199 50.329 143.735 50.503C143.29 50.677 142.894 50.9187 142.546 51.228C142.198 51.5373 141.917 51.9047 141.705 52.33C141.492 52.7553 141.386 53.2193 141.386 53.722V56.709H143.213V59ZM160.035 59H153.597V56.709H155.627V50.416H153.597V48.125H158.034V56.709H160.035V59ZM158.353 43.92C158.353 44.3647 158.198 44.732 157.889 45.022C157.58 45.2927 157.241 45.428 156.874 45.428C156.487 45.428 156.139 45.2927 155.83 45.022C155.521 44.732 155.366 44.3647 155.366 43.92C155.366 43.4753 155.521 43.108 155.83 42.818C156.139 42.528 156.487 42.383 156.874 42.383C157.241 42.383 157.58 42.528 157.889 42.818C158.198 43.108 158.353 43.4753 158.353 43.92ZM177.777 59H170.759V56.709H173.282V40.991H170.759V38.7H174.007C175.67 40.846 177.313 42.992 178.937 45.138C180.58 47.2647 182.233 49.401 183.896 51.547C185.559 49.401 187.202 47.2647 188.826 45.138C190.469 42.992 192.122 40.846 193.785 38.7H197.033V40.991H194.51V56.709H197.033V59H190.015V56.709H192.103V45.37C192.122 45.2153 192.132 45.0607 192.132 44.906C192.151 44.7513 192.171 44.5967 192.19 44.442C192.035 44.6547 191.881 44.877 191.726 45.109C191.571 45.341 191.417 45.5633 191.262 45.776L183.896 55.375L176.211 45.312C176.076 45.138 175.96 44.993 175.863 44.877C175.786 44.761 175.699 44.616 175.602 44.442C175.621 44.5967 175.641 44.7513 175.66 44.906C175.679 45.0607 175.689 45.2153 175.689 45.37V56.709H177.777V59ZM212.884 59H208.563V58.42C208.563 58.2847 208.563 58.188 208.563 58.13C208.563 58.072 208.563 57.9753 208.563 57.84C208.544 57.898 208.447 58.0043 208.273 58.159C208.099 58.3137 207.857 58.4683 207.548 58.623C207.219 58.797 206.833 58.942 206.388 59.058C205.943 59.1933 205.441 59.261 204.88 59.261C204.068 59.261 203.304 59.116 202.589 58.826C201.874 58.5167 201.255 58.101 200.733 57.579C200.211 57.057 199.795 56.4577 199.486 55.781C199.196 55.085 199.051 54.3503 199.051 53.577C199.051 52.823 199.196 52.098 199.486 51.402C199.795 50.706 200.211 50.097 200.733 49.575C201.255 49.053 201.874 48.6373 202.589 48.328C203.304 48.0187 204.068 47.864 204.88 47.864C205.943 47.864 206.784 48.0573 207.403 48.444C208.022 48.8113 208.408 49.1593 208.563 49.488C208.582 49.2947 208.602 49.082 208.621 48.85C208.66 48.5987 208.679 48.357 208.679 48.125H210.68V56.709H212.884V59ZM204.88 50.213C204.358 50.213 203.875 50.3097 203.43 50.503C202.985 50.677 202.618 50.9283 202.328 51.257C202.057 51.547 201.845 51.8853 201.69 52.272C201.555 52.6587 201.487 53.084 201.487 53.548C201.487 54.0893 201.593 54.592 201.806 55.056C202.038 55.52 202.347 55.9067 202.734 56.216C203.005 56.4287 203.324 56.6027 203.691 56.738C204.058 56.854 204.455 56.912 204.88 56.912C205.363 56.912 205.798 56.8347 206.185 56.68C206.591 56.5253 206.939 56.3127 207.229 56.042C207.558 55.7327 207.809 55.3653 207.983 54.94C208.176 54.5147 208.273 54.0507 208.273 53.548C208.273 53.0453 208.176 52.5813 207.983 52.156C207.809 51.7307 207.567 51.373 207.258 51.083C206.949 50.8123 206.591 50.5997 206.185 50.445C205.798 50.2903 205.363 50.213 204.88 50.213ZM221.9 57.927C221.629 58.2943 221.252 58.6037 220.769 58.855C220.285 59.1063 219.657 59.232 218.884 59.232C218.168 59.232 217.482 59.145 216.825 58.971C216.167 58.7777 215.645 58.4683 215.259 58.043V55.52H217.405V56.651C217.637 56.7477 217.859 56.8153 218.072 56.854C218.304 56.8733 218.584 56.883 218.913 56.883C219.067 56.883 219.222 56.8637 219.377 56.825C219.551 56.7863 219.705 56.7187 219.841 56.622C219.937 56.5447 220.015 56.448 220.073 56.332C220.15 56.1967 220.189 56.0323 220.189 55.839C220.189 55.491 220.082 55.23 219.87 55.056C219.676 54.8627 219.406 54.708 219.058 54.592C218.729 54.4567 218.362 54.331 217.956 54.215C217.55 54.0797 217.163 53.896 216.796 53.664C216.448 53.4513 216.158 53.142 215.926 52.736C215.694 52.33 215.578 51.7887 215.578 51.112C215.578 50.5127 215.694 50.01 215.926 49.604C216.158 49.198 216.448 48.8693 216.796 48.618C217.144 48.3473 217.521 48.154 217.927 48.038C218.333 47.922 218.7 47.864 219.029 47.864C219.222 47.864 219.454 47.8833 219.725 47.922C220.015 47.9607 220.305 48.0283 220.595 48.125C220.885 48.2217 221.165 48.3473 221.436 48.502C221.726 48.6567 221.977 48.85 222.19 49.082V51.605H220.044V50.358C219.889 50.3193 219.744 50.2903 219.609 50.271C219.473 50.2323 219.328 50.213 219.174 50.213C218.961 50.213 218.777 50.242 218.623 50.3C218.468 50.3387 218.342 50.3967 218.246 50.474C218.149 50.5707 218.081 50.6867 218.043 50.822C218.004 50.938 217.994 51.0733 218.014 51.228C218.052 51.46 218.197 51.6533 218.449 51.808C218.7 51.9433 219 52.0787 219.348 52.214C219.676 52.3493 220.034 52.504 220.421 52.678C220.807 52.852 221.165 53.0647 221.494 53.316C221.822 53.5867 222.093 53.925 222.306 54.331C222.518 54.7177 222.625 55.2107 222.625 55.81C222.625 56.0807 222.567 56.4093 222.451 56.796C222.354 57.1827 222.17 57.5597 221.9 57.927ZM231.557 59H226.975V50.474H224.539V48.125H226.975V41.049H229.382V48.125H232.224V50.474H229.382V56.709H231.557V59ZM240.053 50.213C239.512 50.213 239.019 50.3097 238.574 50.503C238.149 50.677 237.782 50.9283 237.472 51.257C237.24 51.5277 237.047 51.837 236.892 52.185C236.757 52.533 236.68 52.91 236.66 53.316C237.569 52.9873 238.468 52.6587 239.357 52.33C240.266 51.982 241.175 51.6437 242.083 51.315C241.813 50.9863 241.503 50.7253 241.155 50.532C240.827 50.3193 240.459 50.213 240.053 50.213ZM243.736 57.724C243.253 58.2073 242.702 58.5843 242.083 58.855C241.465 59.1257 240.788 59.261 240.053 59.261C239.241 59.261 238.478 59.116 237.762 58.826C237.066 58.5167 236.457 58.101 235.935 57.579C235.413 57.057 234.998 56.4577 234.688 55.781C234.398 55.085 234.253 54.3407 234.253 53.548C234.253 52.7747 234.398 52.04 234.688 51.344C234.998 50.648 235.413 50.039 235.935 49.517C236.457 49.0143 237.066 48.618 237.762 48.328C238.478 48.0187 239.241 47.864 240.053 47.864C240.653 47.864 241.223 47.9897 241.764 48.241C242.325 48.473 242.828 48.8017 243.272 49.227C243.698 49.6523 244.075 50.1647 244.403 50.764C244.732 51.344 244.983 51.982 245.157 52.678C243.843 53.1613 242.528 53.6447 241.213 54.128C239.918 54.6113 238.613 55.0947 237.298 55.578C237.588 55.984 237.965 56.3127 238.429 56.564C238.913 56.796 239.454 56.912 240.053 56.912C240.498 56.912 240.904 56.8347 241.271 56.68C241.639 56.5253 241.967 56.2933 242.257 55.984L243.736 57.724ZM253.747 59H247.309V56.709H249.513V50.416H247.599V48.125H251.63L251.746 49.633C251.785 50.097 251.794 50.3097 251.775 50.271C251.775 50.2323 251.794 50.445 251.833 50.909C252.065 50.4257 252.355 50.0003 252.703 49.633C253.07 49.2463 253.447 48.9273 253.834 48.676C254.24 48.4053 254.627 48.2023 254.994 48.067C255.381 47.9317 255.719 47.864 256.009 47.864L255.835 50.242C255.352 50.242 254.897 50.3 254.472 50.416C254.066 50.532 253.708 50.6963 253.399 50.909C252.935 51.2183 252.568 51.6147 252.297 52.098C252.046 52.5813 251.92 53.1227 251.92 53.722V56.709H253.747V59ZM269.352 52.04L265.321 59.667C264.529 58.1203 263.746 56.5833 262.972 55.056C262.199 53.5093 261.416 51.9627 260.623 50.416H258.042V48.125H264.045V50.416H263.03C263.456 51.2667 263.92 52.185 264.422 53.171C264.925 54.157 265.273 54.94 265.466 55.52C266.046 54.4373 266.53 53.5383 266.916 52.823C267.303 52.0883 267.719 51.3247 268.163 50.532L268.076 50.416H266.133V48.125H272.571V50.416H270.918C271.344 51.2667 271.759 52.1173 272.165 52.968C272.571 53.7993 272.919 54.65 273.209 55.52C273.499 54.65 273.838 53.7993 274.224 52.968C274.63 52.1173 275.056 51.2667 275.5 50.416H273.876V48.125H280.082V50.416H277.878C277.105 51.982 276.322 53.5287 275.529 55.056C274.756 56.5833 273.983 58.1203 273.209 59.667L269.352 52.04ZM292.062 57.579C291.54 58.101 290.921 58.5167 290.206 58.826C289.49 59.116 288.727 59.261 287.915 59.261C287.103 59.261 286.339 59.116 285.624 58.826C284.928 58.5167 284.319 58.101 283.797 57.579C283.275 57.057 282.859 56.4577 282.55 55.781C282.26 55.1043 282.115 54.36 282.115 53.548C282.115 52.7747 282.26 52.04 282.55 51.344C282.859 50.648 283.275 50.039 283.797 49.517C284.319 49.0143 284.928 48.618 285.624 48.328C286.339 48.0187 287.103 47.864 287.915 47.864C288.727 47.864 289.49 48.0187 290.206 48.328C290.921 48.618 291.54 49.0143 292.062 49.517C292.584 50.039 292.99 50.648 293.28 51.344C293.589 52.04 293.744 52.7747 293.744 53.548C293.744 54.3407 293.589 55.085 293.28 55.781C292.99 56.4577 292.584 57.057 292.062 57.579ZM285.508 55.926C285.798 56.2353 286.146 56.477 286.552 56.651C286.958 56.825 287.393 56.912 287.857 56.912C288.321 56.912 288.756 56.825 289.162 56.651C289.568 56.477 289.925 56.2353 290.235 55.926C290.544 55.636 290.786 55.288 290.96 54.882C291.134 54.476 291.221 54.041 291.221 53.577C291.221 53.113 291.134 52.678 290.96 52.272C290.786 51.866 290.544 51.5083 290.235 51.199C289.925 50.8897 289.568 50.648 289.162 50.474C288.756 50.3 288.321 50.213 287.857 50.213C287.393 50.213 286.958 50.3 286.552 50.474C286.146 50.648 285.798 50.8897 285.508 51.199C285.198 51.5083 284.957 51.866 284.783 52.272C284.609 52.678 284.522 53.113 284.522 53.577C284.522 54.041 284.609 54.476 284.783 54.882C284.957 55.288 285.198 55.636 285.508 55.926ZM302.203 59H295.765V56.709H297.969V50.416H296.055V48.125H300.086L300.202 49.633C300.241 50.097 300.25 50.3097 300.231 50.271C300.231 50.2323 300.25 50.445 300.289 50.909C300.521 50.4257 300.811 50.0003 301.159 49.633C301.526 49.2463 301.903 48.9273 302.29 48.676C302.696 48.4053 303.083 48.2023 303.45 48.067C303.837 47.9317 304.175 47.864 304.465 47.864L304.291 50.242C303.808 50.242 303.353 50.3 302.928 50.416C302.522 50.532 302.164 50.6963 301.855 50.909C301.391 51.2183 301.024 51.6147 300.753 52.098C300.502 52.5813 300.376 53.1227 300.376 53.722V56.709H302.203V59ZM306.498 59V56.709H308.702V39.541H306.788V37.25H311.109V52.881L313.748 50.416H312.675V48.125H318.504V50.416H316.706C316.281 50.8027 315.865 51.199 315.459 51.605C315.053 52.011 314.638 52.4073 314.212 52.794C314.676 53.4513 315.14 54.1087 315.604 54.766C316.088 55.404 316.571 56.0517 317.054 56.709H319.751V59H313.922V56.709H314.241C313.951 56.3223 313.661 55.9357 313.371 55.549C313.081 55.143 312.801 54.7467 312.53 54.36L311.109 55.694V56.709H312.936V59H306.498ZM328.78 57.927C328.51 58.2943 328.133 58.6037 327.649 58.855C327.166 59.1063 326.538 59.232 325.764 59.232C325.049 59.232 324.363 59.145 323.705 58.971C323.048 58.7777 322.526 58.4683 322.139 58.043V55.52H324.285V56.651C324.517 56.7477 324.74 56.8153 324.952 56.854C325.184 56.8733 325.465 56.883 325.793 56.883C325.948 56.883 326.103 56.8637 326.257 56.825C326.431 56.7863 326.586 56.7187 326.721 56.622C326.818 56.5447 326.895 56.448 326.953 56.332C327.031 56.1967 327.069 56.0323 327.069 55.839C327.069 55.491 326.963 55.23 326.75 55.056C326.557 54.8627 326.286 54.708 325.938 54.592C325.61 54.4567 325.242 54.331 324.836 54.215C324.43 54.0797 324.044 53.896 323.676 53.664C323.328 53.4513 323.038 53.142 322.806 52.736C322.574 52.33 322.458 51.7887 322.458 51.112C322.458 50.5127 322.574 50.01 322.806 49.604C323.038 49.198 323.328 48.8693 323.676 48.618C324.024 48.3473 324.401 48.154 324.807 48.038C325.213 47.922 325.581 47.864 325.909 47.864C326.103 47.864 326.335 47.8833 326.605 47.922C326.895 47.9607 327.185 48.0283 327.475 48.125C327.765 48.2217 328.046 48.3473 328.316 48.502C328.606 48.6567 328.858 48.85 329.07 49.082V51.605H326.924V50.358C326.77 50.3193 326.625 50.2903 326.489 50.271C326.354 50.2323 326.209 50.213 326.054 50.213C325.842 50.213 325.658 50.242 325.503 50.3C325.349 50.3387 325.223 50.3967 325.126 50.474C325.03 50.5707 324.962 50.6867 324.923 50.822C324.885 50.938 324.875 51.0733 324.894 51.228C324.933 51.46 325.078 51.6533 325.329 51.808C325.581 51.9433 325.88 52.0787 326.228 52.214C326.557 52.3493 326.915 52.504 327.301 52.678C327.688 52.852 328.046 53.0647 328.374 53.316C328.703 53.5867 328.974 53.925 329.186 54.331C329.399 54.7177 329.505 55.2107 329.505 55.81C329.505 56.0807 329.447 56.4093 329.331 56.796C329.235 57.1827 329.051 57.5597 328.78 57.927Z" fill="white"/>
<defs>
<filter id="filter0_f_228_87" x="6" y="-15.2344" width="82" height="111.5" filterUnits="userSpaceOnUse" color-interpolation-filters="sRGB">
<feFlood flood-opacity="0" result="BackgroundImageFix"/>
<feBlend mode="normal" in="SourceGraphic" in2="BackgroundImageFix" result="shape"/>
<feGaussianBlur stdDeviation="0.5" result="effect1_foregroundBlur_228_87"/>
</filter>
<filter id="filter1_f_228_87" x="56" y="46" width="9" height="9" filterUnits="userSpaceOnUse" color-interpolation-filters="sRGB">
<feFlood flood-opacity="0" result="BackgroundImageFix"/>
<feBlend mode="normal" in="SourceGraphic" in2="BackgroundImageFix" result="shape"/>
<feGaussianBlur stdDeviation="1" result="effect1_foregroundBlur_228_87"/>
</filter>
<radialGradient id="paint0_radial_228_87" cx="0" cy="0" r="1" gradientUnits="userSpaceOnUse" gradientTransform="translate(48 52) rotate(90) scale(40)">
<stop stop-color="#76B3DF"/>
<stop offset="1" stop-color="#221989"/>
</radialGradient>
<linearGradient id="paint1_linear_228_87" x1="47" y1="-11.9112" x2="47" y2="95.2657" gradientUnits="userSpaceOnUse">
<stop stop-color="#7D68FF"/>
<stop offset="1" stop-color="white"/>
</linearGradient>
<linearGradient id="paint2_linear_228_87" x1="24.3487" y1="23.0902" x2="35.3255" y2="53.1487" gradientUnits="userSpaceOnUse">
<stop stop-color="#C609DA"/>
<stop offset="1" stop-color="#0300AC" stop-opacity="0.921875"/>
</linearGradient>
<linearGradient id="paint3_linear_228_87" x1="51.2394" y1="46.5726" x2="51.2394" y2="74.5726" gradientUnits="userSpaceOnUse">
<stop stop-color="#F3F3F3"/>
<stop offset="0.989583" stop-color="#260B85"/>
</linearGradient>
<radialGradient id="paint4_radial_228_87" cx="0" cy="0" r="1" gradientUnits="userSpaceOnUse" gradientTransform="translate(76 19.5) rotate(113.305) scale(35.3871 24.771)">
<stop stop-color="#E1BEEE"/>
<stop offset="1" stop-color="#9305C5"/>
</radialGradient>
<linearGradient id="paint5_linear_228_87" x1="70.6134" y1="9.49512" x2="61.2704" y2="48.3887" gradientUnits="userSpaceOnUse">
<stop stop-color="white"/>
<stop offset="1" stop-color="#DE7373" stop-opacity="0"/>
</linearGradient>
<clipPath id="clip0_228_87">
<rect x="16" y="12" width="64" height="73" rx="10" fill="white"/>
</clipPath>
<clipPath id="clip1_228_87">
<rect width="48" height="48" fill="white" transform="translate(0 23.4652) rotate(-20.0613)"/>
</clipPath>
</defs>
</svg>
